<svg width="51" height="50" viewBox="0 0 51 50" fill="none" xmlns="http://www.w3.org/2000/svg">
<path d="M36.3925 25.0012L49.4156 11.9773C50.1971 11.1954 50.1971 9.91446 49.4156 9.12937L40.8679 0.585193C40.0864 -0.195066 38.8054 -0.195066 38.0199 0.585193L25.0009 13.6091L11.9818 0.585193C11.1963 -0.195066 9.91526 -0.195066 9.13379 0.585193L0.5861 9.12937C-0.195367 9.91446 -0.195367 11.1954 0.5861 11.9773L13.6092 25.0012L0.5861 38.0191C-0.195367 38.8058 -0.195367 40.0867 0.5861 40.867L9.13379 49.4112C9.91526 50.1963 11.1963 50.1963 11.9818 49.4112L25.0009 36.3921L38.0199 49.4112C38.8054 50.1963 40.0864 50.1963 40.8679 49.4112L49.4156 40.867C50.1971 40.0867 50.1971 38.8058 49.4156 38.0191L36.3925 25.0012" fill="white"/>
</svg>
