<svg width="44" height="50" viewBox="0 0 44 50" fill="none" xmlns="http://www.w3.org/2000/svg">
<path d="M43.7507 46.8749C43.7507 48.5937 42.3445 50 40.6257 50H3.12505C1.40627 50 0 48.5937 0 46.8749V43.7499C0 42.0311 1.40627 40.6248 3.12505 40.6248H40.6257C42.3445 40.6248 43.7507 42.0311 43.7507 43.7499V46.8749Z" fill="white"/>
<path d="M39.063 18.7507H28.1253V3.12545C28.1253 1.40667 26.719 0.000397453 25.0003 0.000397453H18.7501C17.0314 0.000397453 15.6251 1.40667 15.6251 3.12545V18.7507H4.68741C3.82802 18.7507 3.66551 19.2038 4.3249 19.7507L20.6752 33.376C21.3346 33.9229 22.4158 33.9229 23.0752 33.376L39.4255 19.7507C40.0849 19.2038 39.9224 18.7507 39.063 18.7507" fill="white"/>
</svg>
