<svg width="44" height="50" viewBox="0 0 44 50" fill="none" xmlns="http://www.w3.org/2000/svg">
<path d="M31.2505 12.5H43.443C43.272 12.1469 43.0524 11.8 42.8046 11.5531C42.2858 11.0344 39.9114 8.65941 37.5333 6.28441C35.1567 3.90628 32.7702 1.51871 32.2308 0.978087C31.9914 0.740587 31.6349 0.531221 31.2505 0.362471V12.5Z" fill="white"/>
<path d="M34.375 26.5625C34.375 27.4219 33.6731 28.125 32.8125 28.125H10.9375C10.0769 28.125 9.375 27.4219 9.375 26.5625V23.4375C9.375 22.5781 10.0769 21.875 10.9375 21.875H32.8125C33.6731 21.875 34.375 22.5781 34.375 23.4375V26.5625ZM34.375 39.0625C34.375 39.9219 33.6731 40.625 32.8125 40.625H10.9375C10.0769 40.625 9.375 39.9219 9.375 39.0625V35.9375C9.375 35.0781 10.0769 34.375 10.9375 34.375H32.8125C33.6731 34.375 34.375 35.0781 34.375 35.9375V39.0625ZM9.375 10.9375C9.375 10.0781 10.0769 9.375 10.9375 9.375H23.4375C24.2981 9.375 25 10.0781 25 10.9375V14.0625C25 14.9219 24.2981 15.625 23.4375 15.625H10.9375C10.0769 15.625 9.375 14.9219 9.375 14.0625V10.9375ZM28.125 15.625V0C26.5931 0 24.2981 0 22.0069 0H6.25C2.81375 0 0 2.8125 0 6.25V43.75C0 47.1875 2.81375 50 6.25 50H37.5C40.9363 50 43.75 47.1875 43.75 43.75V20.9625C43.75 19.4938 43.75 18.75 43.75 15.625H28.125Z" fill="white"/>
</svg>
