<svg width="12" height="20" viewBox="0 0 12 20" fill="none" xmlns="http://www.w3.org/2000/svg">
<path d="M2.12118 19.0508C1.84784 19.0508 1.6665 18.7975 1.6665 18.3335V2.33346C1.6665 1.86946 1.84784 1.61615 2.12118 1.61615C2.27984 1.61615 2.46784 1.70014 2.67051 1.87748L11.3292 9.45612C11.8812 9.93879 11.8812 10.7281 11.3292 11.2108L2.67051 18.7895C2.46784 18.9668 2.27984 19.0508 2.12118 19.0508Z" fill="url(#paint0_radial_1341_15)"/>
<path d="M9.99616 8.12262C10.5482 8.60529 10.5482 9.39464 9.99616 9.87731L1.3375 17.456C0.7855 17.9386 0.333496 17.7333 0.333496 17V0.999966C0.333496 0.266632 0.7855 0.0613111 1.3375 0.543978L9.99616 8.12262Z" fill="#E3F0EF"/>
<defs>
<radialGradient id="paint0_radial_1341_15" cx="0" cy="0" r="1" gradientUnits="userSpaceOnUse" gradientTransform="translate(131 137) scale(393.336 393.335)">
<stop/>
<stop offset="1" stop-color="#215057"/>
</radialGradient>
</defs>
</svg>
