<svg width="50" height="50" viewBox="0 0 50 50" fill="none" xmlns="http://www.w3.org/2000/svg">
<path d="M48.2143 17.8571H32.1429V2.12179C32.1429 1.13572 31.3393 -1.19209e-06 30.3571 -1.19209e-06H19.6429C18.6607 -1.19209e-06 17.8571 1.13572 17.8571 2.12179V17.8571H1.78571C0.803571 17.8571 0 18.9929 0 19.9789V30.6932C0 31.6754 0.803571 32.1429 1.78571 32.1429H17.8571V48.5504C17.8571 49.5325 18.6607 50 19.6429 50H30.3571C31.3393 50 32.1429 49.5325 32.1429 48.5504V32.1429H48.2143C49.1964 32.1429 50 31.6754 50 30.6932V19.9789C50 18.9929 49.1964 17.8571 48.2143 17.8571Z" fill="white"/>
</svg>
