<svg width="989" height="174" viewBox="0 0 989 174" xmlns="http://www.w3.org/2000/svg" fill="white">
    <path d="M20.544 122.48C18.048 122.48 15.424 122.16 12.672 121.52C9.984 120.816 7.456 119.888 5.088 118.736L7.008 114.128C8.608 115.024 10.624 115.824 13.056 116.528C15.552 117.168 17.952 117.488 20.256 117.488C23.136 117.488 25.44 116.88 27.168 115.664C28.96 114.384 29.856 112.368 29.856 109.616C29.856 107.44 29.344 105.808 28.32 104.72C27.36 103.632 25.824 102.736 23.712 102.032L16.704 99.92C14.144 99.088 12.096 98.224 10.56 97.328C9.024 96.432 7.84 95.216 7.008 93.68C6.176 92.08 5.76 90.032 5.76 87.536C5.76 83.376 7.2 80.272 10.08 78.224C12.96 76.176 16.576 75.152 20.928 75.152C25.472 75.152 29.632 76.048 33.408 77.84L31.68 82.352C30.208 81.648 28.544 81.104 26.688 80.72C24.896 80.272 23.136 80.048 21.408 80.048C18.528 80.048 16.16 80.688 14.304 81.968C12.448 83.184 11.52 85.136 11.52 87.824C11.52 89.232 11.776 90.32 12.288 91.088C12.8 91.856 13.504 92.464 14.4 92.912C15.296 93.36 16.64 93.872 18.432 94.448L25.344 96.656C29.12 97.872 31.776 99.376 33.312 101.168C34.912 102.96 35.712 105.68 35.712 109.328C35.712 113.872 34.272 117.2 31.392 119.312C28.576 121.424 24.96 122.48 20.544 122.48ZM45.8093 75.824H50.8013L51.2812 79.088C53.5853 77.616 55.7933 76.592 57.9053 76.016C60.0813 75.44 62.3213 75.152 64.6252 75.152C69.4893 75.152 73.3293 77.104 76.1453 81.008C78.9613 84.848 80.3693 90.8 80.3693 98.864C80.3693 107.248 78.9293 113.296 76.0493 117.008C73.2333 120.656 68.9453 122.48 63.1853 122.48C58.9613 122.48 55.1853 121.648 51.8573 119.984V140.24H45.8093V75.824ZM62.3213 117.488C66.5453 117.488 69.5853 116.08 71.4413 113.264C73.3613 110.384 74.3213 105.616 74.3213 98.96C74.3213 92.432 73.4893 87.664 71.8253 84.656C70.1613 81.584 67.5053 80.048 63.8573 80.048C60.4653 80.048 56.4653 81.392 51.8573 84.08V115.568C53.5853 116.4 55.1213 116.944 56.4653 117.2C57.8093 117.392 59.3133 117.488 60.9773 117.488H62.3213ZM108.259 122.48C102.179 122.48 97.6668 120.432 94.7228 116.336C91.7788 112.176 90.3068 106.32 90.3068 98.768C90.3068 90.896 91.7468 85.008 94.6268 81.104C97.5068 77.136 102.051 75.152 108.259 75.152C114.467 75.152 119.011 77.136 121.891 81.104C124.835 85.008 126.307 90.896 126.307 98.768C126.307 106.32 124.835 112.176 121.891 116.336C118.947 120.432 114.403 122.48 108.259 122.48ZM108.259 117.488C112.675 117.488 115.779 115.888 117.571 112.688C119.363 109.488 120.259 104.848 120.259 98.768C120.259 92.816 119.331 88.208 117.475 84.944C115.683 81.68 112.611 80.048 108.259 80.048C103.907 80.048 100.803 81.68 98.9468 84.944C97.1548 88.208 96.2588 92.816 96.2588 98.768C96.2588 104.848 97.1548 109.488 98.9468 112.688C100.739 115.888 103.843 117.488 108.259 117.488ZM137.872 58.352H143.92V98.864C152.112 90.16 159.152 82.48 165.04 75.824H172.24L152.752 97.52L173.872 122H166.96L148.144 100.496L143.92 104.336V122H137.872V58.352ZM200.273 122.48C187.025 122.48 180.401 114.576 180.401 98.768C180.401 90.896 182.097 85.008 185.489 81.104C188.881 77.136 193.425 75.152 199.121 75.152C204.241 75.152 208.273 76.848 211.217 80.24C214.225 83.568 215.729 88.048 215.729 93.68L215.537 98L215.345 100.016H186.353C186.417 106.608 187.697 111.184 190.193 113.744C192.689 116.24 195.921 117.488 199.889 117.488C202.321 117.488 204.593 117.2 206.705 116.624C208.817 116.048 210.929 115.088 213.041 113.744L214.865 118.448C212.689 119.792 210.289 120.816 207.665 121.52C205.105 122.16 202.641 122.48 200.273 122.48ZM210.161 95.792V93.488C210.161 89.392 209.169 86.128 207.185 83.696C205.201 81.264 202.513 80.048 199.121 80.048C195.217 80.048 192.209 81.424 190.097 84.176C187.985 86.928 186.737 90.8 186.353 95.792H210.161Z"/>
    <path d="M237.125 122L222.875 69.6364H237.568L245.682 104.818H246.159L254.614 69.6364H269.034L277.625 104.614H278.068L286.045 69.6364H300.705L286.489 122H271.114L262.114 89.0682H261.466L252.466 122H237.125ZM308.452 122V69.6364H322.974V122H308.452ZM315.747 62.8864C313.588 62.8864 311.736 62.1705 310.19 60.7386C308.668 59.2841 307.906 57.5455 307.906 55.5227C307.906 53.5227 308.668 51.8068 310.19 50.375C311.736 48.9205 313.588 48.1932 315.747 48.1932C317.906 48.1932 319.747 48.9205 321.27 50.375C322.815 51.8068 323.588 53.5227 323.588 55.5227C323.588 57.5455 322.815 59.2841 321.27 60.7386C319.747 62.1705 317.906 62.8864 315.747 62.8864ZM347.767 106.932L347.801 89.5114H349.915L366.688 69.6364H383.358L360.824 95.9545H357.381L347.767 106.932ZM334.608 122V52.1818H349.131V122H334.608ZM367.335 122L351.926 99.1932L361.608 88.9318L384.347 122H367.335ZM390.483 122V69.6364H405.006V122H390.483ZM397.778 62.8864C395.619 62.8864 393.767 62.1705 392.222 60.7386C390.699 59.2841 389.938 57.5455 389.938 55.5227C389.938 53.5227 390.699 51.8068 392.222 50.375C393.767 48.9205 395.619 48.1932 397.778 48.1932C399.938 48.1932 401.778 48.9205 403.301 50.375C404.847 51.8068 405.619 53.5227 405.619 55.5227C405.619 57.5455 404.847 59.2841 403.301 60.7386C401.778 62.1705 399.938 62.8864 397.778 62.8864Z"/>
    <path d="M546.136 89.5V100H543.455V76.7273H546.136V85.2727H546.364C546.773 84.3712 547.386 83.6553 548.205 83.125C549.03 82.5871 550.129 82.3182 551.5 82.3182C552.689 82.3182 553.731 82.5568 554.625 83.0341C555.519 83.5038 556.212 84.2273 556.705 85.2045C557.205 86.1742 557.455 87.4091 557.455 88.9091V100H554.773V89.0909C554.773 87.7045 554.413 86.6326 553.693 85.875C552.981 85.1098 551.992 84.7273 550.727 84.7273C549.848 84.7273 549.061 84.9129 548.364 85.2841C547.674 85.6553 547.129 86.197 546.727 86.9091C546.333 87.6212 546.136 88.4848 546.136 89.5ZM569.679 100.364C567.997 100.364 566.546 99.9924 565.327 99.25C564.115 98.5 563.179 97.4545 562.52 96.1136C561.868 94.7652 561.543 93.197 561.543 91.4091C561.543 89.6212 561.868 88.0455 562.52 86.6818C563.179 85.3106 564.096 84.2424 565.27 83.4773C566.452 82.7045 567.83 82.3182 569.406 82.3182C570.315 82.3182 571.213 82.4697 572.099 82.7727C572.986 83.0758 573.793 83.5682 574.52 84.25C575.247 84.9242 575.827 85.8182 576.259 86.9318C576.69 88.0455 576.906 89.4167 576.906 91.0455V92.1818H563.452V89.8636H574.179C574.179 88.8788 573.982 88 573.588 87.2273C573.202 86.4545 572.649 85.8447 571.929 85.3977C571.217 84.9508 570.376 84.7273 569.406 84.7273C568.338 84.7273 567.414 84.9924 566.634 85.5227C565.861 86.0455 565.266 86.7273 564.849 87.5682C564.433 88.4091 564.224 89.3106 564.224 90.2727V91.8182C564.224 93.1364 564.452 94.2538 564.906 95.1705C565.368 96.0795 566.009 96.7727 566.827 97.25C567.645 97.7197 568.596 97.9545 569.679 97.9545C570.384 97.9545 571.02 97.8561 571.588 97.6591C572.164 97.4545 572.66 97.1515 573.077 96.75C573.493 96.3409 573.815 95.8333 574.043 95.2273L576.634 95.9545C576.361 96.8333 575.902 97.6061 575.259 98.2727C574.615 98.9318 573.819 99.447 572.872 99.8182C571.925 100.182 570.861 100.364 569.679 100.364ZM586.122 100.409C585.016 100.409 584.012 100.201 583.111 99.7841C582.209 99.3598 581.493 98.75 580.963 97.9545C580.433 97.1515 580.168 96.1818 580.168 95.0455C580.168 94.0455 580.365 93.2348 580.759 92.6136C581.152 91.9848 581.679 91.4924 582.338 91.1364C582.997 90.7803 583.724 90.5152 584.52 90.3409C585.323 90.1591 586.13 90.0152 586.94 89.9091C588.001 89.7727 588.861 89.6705 589.52 89.6023C590.187 89.5265 590.671 89.4015 590.974 89.2273C591.285 89.053 591.44 88.75 591.44 88.3182V88.2273C591.44 87.1061 591.134 86.2348 590.52 85.6136C589.914 84.9924 588.993 84.6818 587.759 84.6818C586.478 84.6818 585.474 84.9621 584.747 85.5227C584.02 86.0833 583.509 86.6818 583.213 87.3182L580.668 86.4091C581.122 85.3485 581.728 84.5227 582.486 83.9318C583.251 83.3333 584.084 82.9167 584.986 82.6818C585.895 82.4394 586.789 82.3182 587.668 82.3182C588.228 82.3182 588.872 82.3864 589.599 82.5227C590.334 82.6515 591.043 82.9205 591.724 83.3295C592.414 83.7386 592.986 84.3561 593.44 85.1818C593.895 86.0076 594.122 87.1136 594.122 88.5V100H591.44V97.6364H591.304C591.122 98.0152 590.819 98.4205 590.395 98.8523C589.971 99.2841 589.406 99.6515 588.702 99.9545C587.997 100.258 587.137 100.409 586.122 100.409ZM586.531 98C587.592 98 588.486 97.7917 589.213 97.375C589.948 96.9583 590.501 96.4205 590.872 95.7614C591.251 95.1023 591.44 94.4091 591.44 93.6818V91.2273C591.327 91.3636 591.077 91.4886 590.69 91.6023C590.312 91.7083 589.872 91.803 589.372 91.8864C588.88 91.9621 588.399 92.0303 587.929 92.0909C587.467 92.1439 587.092 92.1894 586.804 92.2273C586.107 92.3182 585.455 92.4659 584.849 92.6705C584.251 92.8674 583.766 93.1667 583.395 93.5682C583.031 93.9621 582.849 94.5 582.849 95.1818C582.849 96.1136 583.194 96.8182 583.884 97.2955C584.58 97.7652 585.463 98 586.531 98ZM599.017 100V82.5455H601.608V85.1818H601.79C602.108 84.3182 602.684 83.6174 603.517 83.0795C604.35 82.5417 605.29 82.2727 606.335 82.2727C606.532 82.2727 606.778 82.2765 607.074 82.2841C607.369 82.2917 607.593 82.303 607.744 82.3182V85.0455C607.653 85.0227 607.445 84.9886 607.119 84.9432C606.801 84.8902 606.464 84.8636 606.108 84.8636C605.259 84.8636 604.502 85.0417 603.835 85.3977C603.176 85.7462 602.653 86.2311 602.267 86.8523C601.888 87.4659 601.699 88.1667 601.699 88.9545V100H599.017ZM619.923 100V82.5455H622.514V85.2727H622.741C623.105 84.3409 623.692 83.6174 624.503 83.1023C625.313 82.5795 626.287 82.3182 627.423 82.3182C628.575 82.3182 629.533 82.5795 630.298 83.1023C631.071 83.6174 631.673 84.3409 632.105 85.2727H632.287C632.734 84.3712 633.404 83.6553 634.298 83.125C635.192 82.5871 636.264 82.3182 637.514 82.3182C639.075 82.3182 640.351 82.8068 641.344 83.7841C642.336 84.7538 642.832 86.2652 642.832 88.3182V100H640.151V88.3182C640.151 87.0303 639.798 86.1098 639.094 85.5568C638.389 85.0038 637.56 84.7273 636.605 84.7273C635.378 84.7273 634.427 85.0985 633.753 85.8409C633.079 86.5758 632.741 87.5076 632.741 88.6364V100H630.014V88.0455C630.014 87.053 629.692 86.2538 629.048 85.6477C628.404 85.0341 627.575 84.7273 626.56 84.7273C625.863 84.7273 625.211 84.9129 624.605 85.2841C624.007 85.6553 623.522 86.1705 623.151 86.8295C622.787 87.4811 622.605 88.2348 622.605 89.0909V100H619.923ZM654.827 100.364C653.251 100.364 651.868 99.9886 650.679 99.2386C649.497 98.4886 648.573 97.4394 647.906 96.0909C647.247 94.7424 646.918 93.1667 646.918 91.3636C646.918 89.5455 647.247 87.9583 647.906 86.6023C648.573 85.2462 649.497 84.1932 650.679 83.4432C651.868 82.6932 653.251 82.3182 654.827 82.3182C656.402 82.3182 657.781 82.6932 658.963 83.4432C660.152 84.1932 661.077 85.2462 661.736 86.6023C662.402 87.9583 662.736 89.5455 662.736 91.3636C662.736 93.1667 662.402 94.7424 661.736 96.0909C661.077 97.4394 660.152 98.4886 658.963 99.2386C657.781 99.9886 656.402 100.364 654.827 100.364ZM654.827 97.9545C656.024 97.9545 657.009 97.6477 657.781 97.0341C658.554 96.4205 659.126 95.6136 659.497 94.6136C659.868 93.6136 660.054 92.5303 660.054 91.3636C660.054 90.197 659.868 89.1098 659.497 88.1023C659.126 87.0947 658.554 86.2803 657.781 85.6591C657.009 85.0379 656.024 84.7273 654.827 84.7273C653.63 84.7273 652.645 85.0379 651.872 85.6591C651.099 86.2803 650.527 87.0947 650.156 88.1023C649.785 89.1098 649.599 90.197 649.599 91.3636C649.599 92.5303 649.785 93.6136 650.156 94.6136C650.527 95.6136 651.099 96.4205 651.872 97.0341C652.645 97.6477 653.63 97.9545 654.827 97.9545ZM666.83 100V82.5455H669.42V85.1818H669.602C669.92 84.3182 670.496 83.6174 671.33 83.0795C672.163 82.5417 673.102 82.2727 674.148 82.2727C674.345 82.2727 674.591 82.2765 674.886 82.2841C675.182 82.2917 675.405 82.303 675.557 82.3182V85.0455C675.466 85.0227 675.258 84.9886 674.932 84.9432C674.614 84.8902 674.277 84.8636 673.92 84.8636C673.072 84.8636 672.314 85.0417 671.648 85.3977C670.989 85.7462 670.466 86.2311 670.08 86.8523C669.701 87.4659 669.511 88.1667 669.511 88.9545V100H666.83ZM685.523 100.364C683.841 100.364 682.39 99.9924 681.17 99.25C679.958 98.5 679.023 97.4545 678.364 96.1136C677.712 94.7652 677.386 93.197 677.386 91.4091C677.386 89.6212 677.712 88.0455 678.364 86.6818C679.023 85.3106 679.939 84.2424 681.114 83.4773C682.295 82.7045 683.674 82.3182 685.25 82.3182C686.159 82.3182 687.057 82.4697 687.943 82.7727C688.83 83.0758 689.636 83.5682 690.364 84.25C691.091 84.9242 691.67 85.8182 692.102 86.9318C692.534 88.0455 692.75 89.4167 692.75 91.0455V92.1818H679.295V89.8636H690.023C690.023 88.8788 689.826 88 689.432 87.2273C689.045 86.4545 688.492 85.8447 687.773 85.3977C687.061 84.9508 686.22 84.7273 685.25 84.7273C684.182 84.7273 683.258 84.9924 682.477 85.5227C681.705 86.0455 681.11 86.7273 680.693 87.5682C680.277 88.4091 680.068 89.3106 680.068 90.2727V91.8182C680.068 93.1364 680.295 94.2538 680.75 95.1705C681.212 96.0795 681.852 96.7727 682.67 97.25C683.489 97.7197 684.439 97.9545 685.523 97.9545C686.227 97.9545 686.864 97.8561 687.432 97.6591C688.008 97.4545 688.504 97.1515 688.92 96.75C689.337 96.3409 689.659 95.8333 689.886 95.2273L692.477 95.9545C692.205 96.8333 691.746 97.6061 691.102 98.2727C690.458 98.9318 689.663 99.447 688.716 99.8182C687.769 100.182 686.705 100.364 685.523 100.364ZM713.42 82.5455V84.8182H704.375V82.5455H713.42ZM707.011 78.3636H709.693V95C709.693 95.7576 709.803 96.3258 710.023 96.7045C710.25 97.0758 710.538 97.3258 710.886 97.4545C711.242 97.5758 711.617 97.6364 712.011 97.6364C712.307 97.6364 712.549 97.6212 712.739 97.5909C712.928 97.553 713.08 97.5227 713.193 97.5L713.739 99.9091C713.557 99.9773 713.303 100.045 712.977 100.114C712.652 100.189 712.239 100.227 711.739 100.227C710.981 100.227 710.239 100.064 709.511 99.7386C708.792 99.4129 708.193 98.9167 707.716 98.25C707.246 97.5833 707.011 96.7424 707.011 95.7273V78.3636ZM720.511 89.5V100H717.83V76.7273H720.511V85.2727H720.739C721.148 84.3712 721.761 83.6553 722.58 83.125C723.405 82.5871 724.504 82.3182 725.875 82.3182C727.064 82.3182 728.106 82.5568 729 83.0341C729.894 83.5038 730.587 84.2273 731.08 85.2045C731.58 86.1742 731.83 87.4091 731.83 88.9091V100H729.148V89.0909C729.148 87.7045 728.788 86.6326 728.068 85.875C727.356 85.1098 726.367 84.7273 725.102 84.7273C724.223 84.7273 723.436 84.9129 722.739 85.2841C722.049 85.6553 721.504 86.197 721.102 86.9091C720.708 87.6212 720.511 88.4848 720.511 89.5ZM741.872 100.409C740.766 100.409 739.762 100.201 738.861 99.7841C737.959 99.3598 737.243 98.75 736.713 97.9545C736.183 97.1515 735.918 96.1818 735.918 95.0455C735.918 94.0455 736.115 93.2348 736.509 92.6136C736.902 91.9848 737.429 91.4924 738.088 91.1364C738.747 90.7803 739.474 90.5152 740.27 90.3409C741.073 90.1591 741.88 90.0152 742.69 89.9091C743.751 89.7727 744.611 89.6705 745.27 89.6023C745.937 89.5265 746.421 89.4015 746.724 89.2273C747.035 89.053 747.19 88.75 747.19 88.3182V88.2273C747.19 87.1061 746.884 86.2348 746.27 85.6136C745.664 84.9924 744.743 84.6818 743.509 84.6818C742.228 84.6818 741.224 84.9621 740.497 85.5227C739.77 86.0833 739.259 86.6818 738.963 87.3182L736.418 86.4091C736.872 85.3485 737.478 84.5227 738.236 83.9318C739.001 83.3333 739.834 82.9167 740.736 82.6818C741.645 82.4394 742.539 82.3182 743.418 82.3182C743.978 82.3182 744.622 82.3864 745.349 82.5227C746.084 82.6515 746.793 82.9205 747.474 83.3295C748.164 83.7386 748.736 84.3561 749.19 85.1818C749.645 86.0076 749.872 87.1136 749.872 88.5V100H747.19V97.6364H747.054C746.872 98.0152 746.569 98.4205 746.145 98.8523C745.721 99.2841 745.156 99.6515 744.452 99.9545C743.747 100.258 742.887 100.409 741.872 100.409ZM742.281 98C743.342 98 744.236 97.7917 744.963 97.375C745.698 96.9583 746.251 96.4205 746.622 95.7614C747.001 95.1023 747.19 94.4091 747.19 93.6818V91.2273C747.077 91.3636 746.827 91.4886 746.44 91.6023C746.062 91.7083 745.622 91.803 745.122 91.8864C744.63 91.9621 744.149 92.0303 743.679 92.0909C743.217 92.1439 742.842 92.1894 742.554 92.2273C741.857 92.3182 741.205 92.4659 740.599 92.6705C740.001 92.8674 739.516 93.1667 739.145 93.5682C738.781 93.9621 738.599 94.5 738.599 95.1818C738.599 96.1136 738.944 96.8182 739.634 97.2955C740.33 97.7652 741.213 98 742.281 98ZM757.449 89.5V100H754.767V82.5455H757.358V85.2727H757.585C757.994 84.3864 758.616 83.6742 759.449 83.1364C760.282 82.5909 761.358 82.3182 762.676 82.3182C763.858 82.3182 764.892 82.5606 765.778 83.0455C766.665 83.5227 767.354 84.25 767.847 85.2273C768.339 86.197 768.585 87.4242 768.585 88.9091V100H765.903V89.0909C765.903 87.7197 765.547 86.6515 764.835 85.8864C764.123 85.1136 763.146 84.7273 761.903 84.7273C761.047 84.7273 760.282 84.9129 759.608 85.2841C758.941 85.6553 758.415 86.197 758.028 86.9091C757.642 87.6212 757.449 88.4848 757.449 89.5ZM782.486 82.5455H785.168V101.273C785.168 102.348 784.982 103.28 784.611 104.068C784.247 104.856 783.694 105.466 782.952 105.898C782.217 106.33 781.289 106.545 780.168 106.545C780.077 106.545 779.986 106.545 779.895 106.545C779.804 106.545 779.713 106.545 779.622 106.545V104.045C779.713 104.045 779.796 104.045 779.872 104.045C779.948 104.045 780.031 104.045 780.122 104.045C780.94 104.045 781.539 103.803 781.918 103.318C782.296 102.841 782.486 102.159 782.486 101.273V82.5455ZM783.804 79.6364C783.281 79.6364 782.83 79.4583 782.452 79.1023C782.08 78.7462 781.895 78.3182 781.895 77.8182C781.895 77.3182 782.08 76.8902 782.452 76.5341C782.83 76.178 783.281 76 783.804 76C784.327 76 784.774 76.178 785.145 76.5341C785.524 76.8902 785.713 77.3182 785.713 77.8182C785.713 78.3182 785.524 78.7462 785.145 79.1023C784.774 79.4583 784.327 79.6364 783.804 79.6364ZM801.08 92.8636V82.5455H803.761V100H801.08V97.0455H800.898C800.489 97.9318 799.852 98.6856 798.989 99.3068C798.125 99.9205 797.034 100.227 795.716 100.227C794.625 100.227 793.655 99.9886 792.807 99.5114C791.958 99.0265 791.292 98.2992 790.807 97.3295C790.322 96.3523 790.08 95.1212 790.08 93.6364V82.5455H792.761V93.4545C792.761 94.7273 793.117 95.7424 793.83 96.5C794.549 97.2576 795.466 97.6364 796.58 97.6364C797.246 97.6364 797.924 97.4659 798.614 97.125C799.311 96.7841 799.894 96.2614 800.364 95.5568C800.841 94.8523 801.08 93.9545 801.08 92.8636ZM821.037 86.4545L818.628 87.1364C818.476 86.7348 818.253 86.3447 817.957 85.9659C817.67 85.5795 817.276 85.2614 816.776 85.0114C816.276 84.7614 815.635 84.6364 814.855 84.6364C813.787 84.6364 812.897 84.8826 812.185 85.375C811.48 85.8598 811.128 86.4773 811.128 87.2273C811.128 87.8939 811.37 88.4205 811.855 88.8068C812.34 89.1932 813.098 89.5152 814.128 89.7727L816.719 90.4091C818.279 90.7879 819.442 91.3674 820.207 92.1477C820.973 92.9205 821.355 93.9167 821.355 95.1364C821.355 96.1364 821.067 97.0303 820.491 97.8182C819.923 98.6061 819.128 99.2273 818.105 99.6818C817.082 100.136 815.893 100.364 814.537 100.364C812.757 100.364 811.283 99.9773 810.116 99.2045C808.95 98.4318 808.211 97.303 807.901 95.8182L810.446 95.1818C810.688 96.1212 811.147 96.8258 811.821 97.2955C812.503 97.7652 813.393 98 814.491 98C815.741 98 816.734 97.7348 817.469 97.2045C818.211 96.6667 818.582 96.0227 818.582 95.2727C818.582 94.6667 818.37 94.1591 817.946 93.75C817.522 93.3333 816.87 93.0227 815.991 92.8182L813.082 92.1364C811.484 91.7576 810.31 91.1705 809.56 90.375C808.817 89.572 808.446 88.5682 808.446 87.3636C808.446 86.3788 808.723 85.5076 809.276 84.75C809.836 83.9924 810.598 83.3977 811.56 82.9659C812.529 82.5341 813.628 82.3182 814.855 82.3182C816.582 82.3182 817.938 82.697 818.923 83.4545C819.916 84.2121 820.62 85.2121 821.037 86.4545ZM832.983 82.5455V84.8182H823.938V82.5455H832.983ZM826.574 78.3636H829.256V95C829.256 95.7576 829.366 96.3258 829.585 96.7045C829.813 97.0758 830.1 97.3258 830.449 97.4545C830.805 97.5758 831.18 97.6364 831.574 97.6364C831.869 97.6364 832.112 97.6212 832.301 97.5909C832.491 97.553 832.642 97.5227 832.756 97.5L833.301 99.9091C833.119 99.9773 832.866 100.045 832.54 100.114C832.214 100.189 831.801 100.227 831.301 100.227C830.544 100.227 829.801 100.064 829.074 99.7386C828.354 99.4129 827.756 98.9167 827.278 98.25C826.809 97.5833 826.574 96.7424 826.574 95.7273V78.3636ZM848.699 89.5V100H846.017V76.7273H848.699V85.2727H848.926C849.335 84.3712 849.949 83.6553 850.767 83.125C851.593 82.5871 852.691 82.3182 854.062 82.3182C855.252 82.3182 856.294 82.5568 857.188 83.0341C858.081 83.5038 858.775 84.2273 859.267 85.2045C859.767 86.1742 860.017 87.4091 860.017 88.9091V100H857.335V89.0909C857.335 87.7045 856.975 86.6326 856.256 85.875C855.544 85.1098 854.555 84.7273 853.29 84.7273C852.411 84.7273 851.623 84.9129 850.926 85.2841C850.237 85.6553 849.691 86.197 849.29 86.9091C848.896 87.6212 848.699 88.4848 848.699 89.5ZM872.241 100.364C870.56 100.364 869.109 99.9924 867.889 99.25C866.677 98.5 865.741 97.4545 865.082 96.1136C864.431 94.7652 864.105 93.197 864.105 91.4091C864.105 89.6212 864.431 88.0455 865.082 86.6818C865.741 85.3106 866.658 84.2424 867.832 83.4773C869.014 82.7045 870.393 82.3182 871.969 82.3182C872.878 82.3182 873.776 82.4697 874.662 82.7727C875.548 83.0758 876.355 83.5682 877.082 84.25C877.81 84.9242 878.389 85.8182 878.821 86.9318C879.253 88.0455 879.469 89.4167 879.469 91.0455V92.1818H866.014V89.8636H876.741C876.741 88.8788 876.545 88 876.151 87.2273C875.764 86.4545 875.211 85.8447 874.491 85.3977C873.779 84.9508 872.938 84.7273 871.969 84.7273C870.901 84.7273 869.976 84.9924 869.196 85.5227C868.423 86.0455 867.829 86.7273 867.412 87.5682C866.995 88.4091 866.787 89.3106 866.787 90.2727V91.8182C866.787 93.1364 867.014 94.2538 867.469 95.1705C867.931 96.0795 868.571 96.7727 869.389 97.25C870.207 97.7197 871.158 97.9545 872.241 97.9545C872.946 97.9545 873.582 97.8561 874.151 97.6591C874.726 97.4545 875.223 97.1515 875.639 96.75C876.056 96.3409 876.378 95.8333 876.605 95.2273L879.196 95.9545C878.923 96.8333 878.465 97.6061 877.821 98.2727C877.177 98.9318 876.382 99.447 875.435 99.8182C874.488 100.182 873.423 100.364 872.241 100.364ZM888.685 100.409C887.579 100.409 886.575 100.201 885.673 99.7841C884.772 99.3598 884.056 98.75 883.526 97.9545C882.995 97.1515 882.73 96.1818 882.73 95.0455C882.73 94.0455 882.927 93.2348 883.321 92.6136C883.715 91.9848 884.241 91.4924 884.901 91.1364C885.56 90.7803 886.287 90.5152 887.082 90.3409C887.885 90.1591 888.692 90.0152 889.503 89.9091C890.563 89.7727 891.423 89.6705 892.082 89.6023C892.749 89.5265 893.234 89.4015 893.537 89.2273C893.848 89.053 894.003 88.75 894.003 88.3182V88.2273C894.003 87.1061 893.696 86.2348 893.082 85.6136C892.476 84.9924 891.556 84.6818 890.321 84.6818C889.041 84.6818 888.037 84.9621 887.31 85.5227C886.582 86.0833 886.071 86.6818 885.776 87.3182L883.23 86.4091C883.685 85.3485 884.291 84.5227 885.048 83.9318C885.813 83.3333 886.647 82.9167 887.548 82.6818C888.457 82.4394 889.351 82.3182 890.23 82.3182C890.791 82.3182 891.435 82.3864 892.162 82.5227C892.897 82.6515 893.605 82.9205 894.287 83.3295C894.976 83.7386 895.548 84.3561 896.003 85.1818C896.457 86.0076 896.685 87.1136 896.685 88.5V100H894.003V97.6364H893.866C893.685 98.0152 893.382 98.4205 892.957 98.8523C892.533 99.2841 891.969 99.6515 891.264 99.9545C890.56 100.258 889.7 100.409 888.685 100.409ZM889.094 98C890.154 98 891.048 97.7917 891.776 97.375C892.51 96.9583 893.063 96.4205 893.435 95.7614C893.813 95.1023 894.003 94.4091 894.003 93.6818V91.2273C893.889 91.3636 893.639 91.4886 893.253 91.6023C892.874 91.7083 892.435 91.803 891.935 91.8864C891.442 91.9621 890.961 92.0303 890.491 92.0909C890.029 92.1439 889.654 92.1894 889.366 92.2273C888.67 92.3182 888.018 92.4659 887.412 92.6705C886.813 92.8674 886.329 93.1667 885.957 93.5682C885.594 93.9621 885.412 94.5 885.412 95.1818C885.412 96.1136 885.757 96.8182 886.446 97.2955C887.143 97.7652 888.026 98 889.094 98ZM908.17 100.364C906.716 100.364 905.432 99.9962 904.318 99.2614C903.205 98.5189 902.333 97.4735 901.705 96.125C901.076 94.7689 900.761 93.1667 900.761 91.3182C900.761 89.4848 901.076 87.8939 901.705 86.5455C902.333 85.197 903.208 84.1553 904.33 83.4205C905.451 82.6856 906.746 82.3182 908.216 82.3182C909.352 82.3182 910.25 82.5076 910.909 82.8864C911.576 83.2576 912.083 83.6818 912.432 84.1591C912.788 84.6288 913.064 85.0152 913.261 85.3182H913.489V76.7273H916.17V100H913.58V97.3182H913.261C913.064 97.6364 912.784 98.0379 912.42 98.5227C912.057 99 911.538 99.428 910.864 99.8068C910.189 100.178 909.292 100.364 908.17 100.364ZM908.534 97.9545C909.61 97.9545 910.519 97.6742 911.261 97.1136C912.004 96.5455 912.568 95.7614 912.955 94.7614C913.341 93.7538 913.534 92.5909 913.534 91.2727C913.534 89.9697 913.345 88.8295 912.966 87.8523C912.587 86.8674 912.027 86.1023 911.284 85.5568C910.542 85.0038 909.625 84.7273 908.534 84.7273C907.398 84.7273 906.451 85.0189 905.693 85.6023C904.943 86.178 904.379 86.9621 904 87.9545C903.629 88.9394 903.443 90.0455 903.443 91.2727C903.443 92.5152 903.633 93.6439 904.011 94.6591C904.398 95.6667 904.966 96.4697 905.716 97.0682C906.473 97.6591 907.413 97.9545 908.534 97.9545ZM924.136 76.7273V100H921.455V76.7273H924.136ZM929.048 100V82.5455H931.73V100H929.048ZM930.412 79.6364C929.889 79.6364 929.438 79.4583 929.06 79.1023C928.688 78.7462 928.503 78.3182 928.503 77.8182C928.503 77.3182 928.688 76.8902 929.06 76.5341C929.438 76.178 929.889 76 930.412 76C930.935 76 931.382 76.178 931.753 76.5341C932.132 76.8902 932.321 77.3182 932.321 77.8182C932.321 78.3182 932.132 78.7462 931.753 79.1023C931.382 79.4583 930.935 79.6364 930.412 79.6364ZM939.324 89.5V100H936.642V82.5455H939.233V85.2727H939.46C939.869 84.3864 940.491 83.6742 941.324 83.1364C942.157 82.5909 943.233 82.3182 944.551 82.3182C945.733 82.3182 946.767 82.5606 947.653 83.0455C948.54 83.5227 949.229 84.25 949.722 85.2273C950.214 86.197 950.46 87.4242 950.46 88.9091V100H947.778V89.0909C947.778 87.7197 947.422 86.6515 946.71 85.8864C945.998 85.1136 945.021 84.7273 943.778 84.7273C942.922 84.7273 942.157 84.9129 941.483 85.2841C940.816 85.6553 940.29 86.197 939.903 86.9091C939.517 87.6212 939.324 88.4848 939.324 89.5ZM962.679 100.364C960.997 100.364 959.546 99.9924 958.327 99.25C957.115 98.5 956.179 97.4545 955.52 96.1136C954.868 94.7652 954.543 93.197 954.543 91.4091C954.543 89.6212 954.868 88.0455 955.52 86.6818C956.179 85.3106 957.096 84.2424 958.27 83.4773C959.452 82.7045 960.83 82.3182 962.406 82.3182C963.315 82.3182 964.213 82.4697 965.099 82.7727C965.986 83.0758 966.793 83.5682 967.52 84.25C968.247 84.9242 968.827 85.8182 969.259 86.9318C969.69 88.0455 969.906 89.4167 969.906 91.0455V92.1818H956.452V89.8636H967.179C967.179 88.8788 966.982 88 966.588 87.2273C966.202 86.4545 965.649 85.8447 964.929 85.3977C964.217 84.9508 963.376 84.7273 962.406 84.7273C961.338 84.7273 960.414 84.9924 959.634 85.5227C958.861 86.0455 958.266 86.7273 957.849 87.5682C957.433 88.4091 957.224 89.3106 957.224 90.2727V91.8182C957.224 93.1364 957.452 94.2538 957.906 95.1705C958.368 96.0795 959.009 96.7727 959.827 97.25C960.645 97.7197 961.596 97.9545 962.679 97.9545C963.384 97.9545 964.02 97.8561 964.588 97.6591C965.164 97.4545 965.66 97.1515 966.077 96.75C966.493 96.3409 966.815 95.8333 967.043 95.2273L969.634 95.9545C969.361 96.8333 968.902 97.6061 968.259 98.2727C967.615 98.9318 966.819 99.447 965.872 99.8182C964.925 100.182 963.861 100.364 962.679 100.364ZM986.349 86.4545L983.94 87.1364C983.789 86.7348 983.565 86.3447 983.27 85.9659C982.982 85.5795 982.588 85.2614 982.088 85.0114C981.588 84.7614 980.948 84.6364 980.168 84.6364C979.099 84.6364 978.209 84.8826 977.497 85.375C976.793 85.8598 976.44 86.4773 976.44 87.2273C976.44 87.8939 976.683 88.4205 977.168 88.8068C977.652 89.1932 978.41 89.5152 979.44 89.7727L982.031 90.4091C983.592 90.7879 984.755 91.3674 985.52 92.1477C986.285 92.9205 986.668 93.9167 986.668 95.1364C986.668 96.1364 986.38 97.0303 985.804 97.8182C985.236 98.6061 984.44 99.2273 983.418 99.6818C982.395 100.136 981.205 100.364 979.849 100.364C978.069 100.364 976.596 99.9773 975.429 99.2045C974.262 98.4318 973.524 97.303 973.213 95.8182L975.759 95.1818C976.001 96.1212 976.459 96.8258 977.134 97.2955C977.815 97.7652 978.705 98 979.804 98C981.054 98 982.046 97.7348 982.781 97.2045C983.524 96.6667 983.895 96.0227 983.895 95.2727C983.895 94.6667 983.683 94.1591 983.259 93.75C982.834 93.3333 982.183 93.0227 981.304 92.8182L978.395 92.1364C976.796 91.7576 975.622 91.1705 974.872 90.375C974.13 89.572 973.759 88.5682 973.759 87.3636C973.759 86.3788 974.035 85.5076 974.588 84.75C975.149 83.9924 975.91 83.3977 976.872 82.9659C977.842 82.5341 978.94 82.3182 980.168 82.3182C981.895 82.3182 983.251 82.697 984.236 83.4545C985.228 84.2121 985.933 85.2121 986.349 86.4545Z"/>
    <rect x="473" width="7" height="174"/>
    <rect x="487" y="13" width="7" height="142"/>
    <rect x="459" y="32" width="7" height="98"/>
    <rect x="445" y="62" width="7" height="50"/>
    <rect x="500" y="55" width="7" height="60"/>
    <rect x="514" y="74" width="7" height="30"/>
</svg>
